<svg id="sms" xmlns="http://www.w3.org/2000/svg" width="16" height="16" viewBox="0 0 16 16">
  <path id="Icon_color" data-name="Icon color" d="M.334,13.333A.334.334,0,0,1,0,13V2.666A2.669,2.669,0,0,1,2.666,0h8a2.669,2.669,0,0,1,2.666,2.666V8a2.67,2.67,0,0,1-2.666,2.667h-6.7a1.99,1.99,0,0,0-1.4.567l-2,2A.328.328,0,0,1,.334,13.333ZM9,4.667A.334.334,0,0,0,8.666,5v.667A.334.334,0,0,0,9,6h.667A.334.334,0,0,0,10,5.666V5a.334.334,0,0,0-.334-.333Zm-2.666,0A.334.334,0,0,0,6,5v.667A.334.334,0,0,0,6.334,6H7a.334.334,0,0,0,.333-.334V5A.333.333,0,0,0,7,4.667Zm-2.667,0A.333.333,0,0,0,3.334,5v.667A.334.334,0,0,0,3.667,6h.667a.334.334,0,0,0,.334-.334V5a.334.334,0,0,0-.334-.333Z" transform="translate(1.333 1.333)" fill="#fff"/>
</svg>
