<svg xmlns="http://www.w3.org/2000/svg" xmlns:xlink="http://www.w3.org/1999/xlink" width="16" height="16" viewBox="0 0 16 16">
  <defs>
    <clipPath id="clip-path">
      <rect id="Прямоугольник_1009" data-name="Прямоугольник 1009" width="16" height="16" transform="translate(138 369)" fill="none" stroke="#707070" stroke-width="1"/>
    </clipPath>
  </defs>
  <g id="Группа_масок_51" data-name="Группа масок 51" transform="translate(-138 -369)" clip-path="url(#clip-path)">
    <g id="Сгруппировать_980" data-name="Сгруппировать 980" transform="translate(139.5 372.35)">
      <path id="Контур_899" data-name="Контур 899" d="M54.847,69.338a5.5,5.5,0,0,0-3.127-1.169l-.156.178a7.406,7.406,0,0,1,2.771,1.414,9.073,9.073,0,0,0-3.35-1.069,9.419,9.419,0,0,0-2.248.023,1.054,1.054,0,0,0-.189.022,8.352,8.352,0,0,0-2.527.7c-.412.189-.657.323-.657.323A7.506,7.506,0,0,1,48.291,68.3l-.111-.133a5.505,5.505,0,0,0-3.128,1.169,14.907,14.907,0,0,0-1.6,6.489,4.033,4.033,0,0,0,3.394,1.692s.412-.5.746-.924a3.461,3.461,0,0,1-1.948-1.313s.111.078.311.189A.141.141,0,0,0,46,75.5c.034.022.066.033.1.056a6.592,6.592,0,0,0,.813.379,9.355,9.355,0,0,0,1.637.479,7.8,7.8,0,0,0,2.882.011,7.345,7.345,0,0,0,1.615-.479,6.364,6.364,0,0,0,1.28-.657,3.514,3.514,0,0,1-2.015,1.325c.334.423.735.9.735.9a4.068,4.068,0,0,0,3.406-1.692A14.9,14.9,0,0,0,54.847,69.338Zm-6.979,5.454a1.24,1.24,0,0,1,0-2.471,1.24,1.24,0,0,1,0,2.471Zm4.063,0a1.24,1.24,0,1,1,1.135-1.236A1.193,1.193,0,0,1,51.931,74.791Z" transform="translate(-43.45 -68.169)" fill="#fff"/>
    </g>
  </g>
</svg>
