<svg id="edit" xmlns="http://www.w3.org/2000/svg" width="12" height="12" viewBox="0 0 12 12">
  <path id="Icon_color" data-name="Icon color" d="M.292,9a.248.248,0,0,1-.176-.073.249.249,0,0,1-.094-.31L.878,6.452A.993.993,0,0,1,1.1,6.113L5.129,2.086a.251.251,0,0,1,.177-.074.247.247,0,0,1,.177.074L6.91,3.493a.251.251,0,0,1,0,.349L2.889,7.879A.988.988,0,0,1,2.55,8.1L.385,8.982A.248.248,0,0,1,.292,9ZM7.681,2.978A.251.251,0,0,1,7.5,2.9L6.1,1.482a.251.251,0,0,1,0-.349L7,.22A.745.745,0,0,1,7.535,0h.387a.744.744,0,0,1,.529.22L8.78.549A.745.745,0,0,1,9,1.078v.379A.753.753,0,0,1,8.78,2L7.858,2.9A.251.251,0,0,1,7.681,2.978Z" transform="translate(1.5 1.5)" fill="#ced1d3"/>
</svg>
