<svg id="ico_24_actions_key" data-name="ico / 24 / actions / key" xmlns="http://www.w3.org/2000/svg" width="16" height="16" viewBox="0 0 16 16">
  <path id="Icon_color" data-name="Icon color" d="M3.667,12a3.667,3.667,0,1,1,0-7.333h0A3.582,3.582,0,0,1,5.14,4.98L9.926.193A.672.672,0,0,1,10.393,0h.94A.667.667,0,0,1,12,.667V2.333a.334.334,0,0,1-.334.333H10.42a.325.325,0,0,0-.24.134h-.034A.5.5,0,0,0,10,3.154V4.327a.334.334,0,0,1-.334.334H8.48a.5.5,0,0,0-.353.146l-.173.173a.5.5,0,0,0-.147.353v.48a.672.672,0,0,1-.193.467l-.587.586A3.666,3.666,0,0,1,3.667,12ZM2.96,7.706A1.333,1.333,0,1,0,4.294,9.04,1.335,1.335,0,0,0,2.96,7.706Z" transform="translate(2 2)" fill="#fff"/>
</svg>
