<svg id="lock" xmlns="http://www.w3.org/2000/svg" width="16" height="16" viewBox="0 0 16 16">
  <path id="Icon_color" data-name="Icon color" d="M9.334,13.333h-8A1.335,1.335,0,0,1,0,12V6.667A1.335,1.335,0,0,1,1.333,5.333V4a4,4,0,0,1,8,0V5.333a1.335,1.335,0,0,1,1.333,1.333V12A1.335,1.335,0,0,1,9.334,13.333ZM4.667,8A.667.667,0,0,0,4,8.666V10a.667.667,0,0,0,.667.667H6A.667.667,0,0,0,6.667,10V8.666A.667.667,0,0,0,6,8Zm.667-6.667A2.67,2.67,0,0,0,2.666,4V5.333H8V4A2.67,2.67,0,0,0,5.333,1.333Z" transform="translate(2.667 1.333)" fill="#fff"/>
</svg>
