<svg xmlns="http://www.w3.org/2000/svg" width="114.962" height="18.001" viewBox="0 0 114.962 18.001">
  <g id="Сгруппировать_1319" data-name="Сгруппировать 1319" transform="translate(-186.251 -759.865)">
    <g id="Сгруппировать_1318" data-name="Сгруппировать 1318" transform="translate(186.251 759.865)">
      <path id="Контур_905" data-name="Контур 905" d="M5.638-15.51H9.094L14.6-2.483H10.757l-.942-2.31H4.825L3.9-2.483H.132ZM8.779-7.583,7.338-11.26,5.878-7.583Zm7.077-7.834H26.2v3.141H19.441v2.2h6.116V-7.1H19.441v4.619H15.856Zm11.973,0H38.177v3.141H31.414v2.2H37.53V-7.1H31.414v4.619H27.83Zm12.047,0h3.6V-2.483h-3.6Zm5.968,0H49.19l5.321,6.837v-6.837h3.548V-2.483H54.918l-5.525-7.1v7.1H45.845Zm14.579,0h3.6V-2.483h-3.6Zm9.128,3.141h-3.88v-3.141H77.017v3.141h-3.88v9.793H69.552ZM82.32-7.324,77.4-15.418h4.084l2.661,4.712,2.679-4.712h4.01L85.923-7.38v4.9h-3.6Z" transform="translate(24.125 18.921)" fill="#9fa4a9"/>
      <g id="Сгруппировать_1317" data-name="Сгруппировать 1317" transform="translate(0 0)">
        <path id="Контур_902" data-name="Контур 902" d="M86.692,204.5h-2.6l-1.3-2.25H80.2L78.9,200l-1.3,2.25-1.3,2.25L75,206.75H87.991l-1.3-2.25Z" transform="translate(-75 -188.749)" fill="#9fa4a9"/>
        <path id="Контур_903" data-name="Контур 903" d="M151.8,130.063h0l-1.3-2.25-1.3-2.25h-2.6l-1.3-2.25h-2.6l-1.3-2.25-1.3-2.25-1.3,2.25-1.3,2.25,1.3,2.25h2.6l1.3,2.25h2.6l1.3,2.25h2.6l1.3,2.25h2.6Z" transform="translate(-132.313 -114.312)" fill="#9fa4a9"/>
        <path id="Контур_904" data-name="Контур 904" d="M186.977,71.438h2.6l-1.3-2.25h0l-1.3-2.25h0l-1.3-2.25h0l-1.3,2.25,1.3,2.25Z" transform="translate(-175.285 -64.687)" fill="#9fa4a9"/>
      </g>
    </g>
  </g>
</svg>
