<svg id="mastercard-logo" xmlns="http://www.w3.org/2000/svg" width="33.796" height="20.761" viewBox="0 0 33.796 20.761">
  <path id="Combined_Shape" data-name="Combined Shape" d="M16.9,18.281a10.131,10.131,0,0,1-6.648,2.479A10.315,10.315,0,0,1,0,10.381,10.315,10.315,0,0,1,10.25,0,10.131,10.131,0,0,1,16.9,2.48,10.133,10.133,0,0,1,23.546,0,10.315,10.315,0,0,1,33.8,10.381a10.315,10.315,0,0,1-10.25,10.38A10.133,10.133,0,0,1,16.9,18.281Z" transform="translate(0 0)" fill="#ff5e00"/>
  <path id="Combined_Shape-2" data-name="Combined Shape" d="M10.25,20.761A10.327,10.327,0,0,1,0,10.381,10.328,10.328,0,0,1,10.25,0,10.173,10.173,0,0,1,16.9,2.48a10.467,10.467,0,0,0,0,15.8A10.173,10.173,0,0,1,10.25,20.761Z" transform="translate(0 0)" fill="#ed0006"/>
  <path id="Combined_Shape-3" data-name="Combined Shape" d="M6.649,20.761A10.176,10.176,0,0,1,0,18.281a10.425,10.425,0,0,0,3.6-7.9A10.427,10.427,0,0,0,0,2.48,10.175,10.175,0,0,1,6.649,0,10.327,10.327,0,0,1,16.9,10.381,10.327,10.327,0,0,1,6.649,20.761Z" transform="translate(16.898 0)" fill="#f9a000"/>
</svg>
