<svg id="remove_from_trash" xmlns="http://www.w3.org/2000/svg" width="16" height="16" viewBox="0 0 16 16">
  <path id="Icon_color" data-name="Icon color" d="M2.577,13.333a1.337,1.337,0,0,1-1.33-1.24L.667,4H10l-.567,8.093a1.337,1.337,0,0,1-1.33,1.24H2.577Zm2.757-3.84h0l1.24,1.233a.32.32,0,0,0,.466,0l.353-.353a.319.319,0,0,0,0-.467L6.16,8.666l1.233-1.24a.319.319,0,0,0,0-.467L7.04,6.607a.32.32,0,0,0-.466,0L5.333,7.84,4.093,6.607a.321.321,0,0,0-.467,0l-.353.353a.319.319,0,0,0,0,.467l1.233,1.24L3.274,9.907a.319.319,0,0,0,0,.467l.353.353a.321.321,0,0,0,.467,0l1.24-1.233Zm5-6.827h-10A.334.334,0,0,1,0,2.333V1.667a.334.334,0,0,1,.334-.334h3V.667A.667.667,0,0,1,4,0H6.667a.667.667,0,0,1,.667.667v.667h3a.334.334,0,0,1,.334.334v.667A.334.334,0,0,1,10.333,2.666Z" transform="translate(2.667 1.333)" fill="#fff"/>
</svg>
